<?xml version="1.0" encoding="UTF-8"?>
<svg version="1.1" xmlns="http://www.w3.org/2000/svg" width="512" height="512">
<path d="M0 0 C0.98198364 -0.0065712 1.96396729 -0.0131424 2.97570801 -0.01991272 C6.19319765 -0.03946151 9.41064108 -0.05126593 12.62817383 -0.0612793 C13.73663477 -0.06535482 14.84509571 -0.06943035 15.98714638 -0.07362938 C21.85291985 -0.09441021 27.71867047 -0.10874708 33.58447266 -0.11816406 C39.60490172 -0.12922096 45.6249605 -0.16363622 51.6452589 -0.20333576 C56.30990737 -0.22961772 60.97446897 -0.23786607 65.63918495 -0.24144554 C67.85689105 -0.24628031 70.07459409 -0.25780405 72.29222679 -0.27648354 C97.5588642 -0.47611371 117.05298236 5.0811186 135.59692383 23.06762695 C148.92687088 37.32617706 155.17875371 55.61864115 155.96020508 74.92700195 C155.19086342 93.14045339 148.55383905 109.62277619 142.30163574 126.50500488 C140.99318693 130.048541 139.70244788 133.59851872 138.40942383 137.14770508 C136.52575908 142.30829478 134.63633304 147.46668903 132.7331543 152.62011719 C132.35359589 153.64805893 131.97403748 154.67600067 131.58297729 155.73509216 C130.64770508 158.17700195 130.64770508 158.17700195 129.64770508 160.17700195 C130.70989258 160.1305957 131.77208008 160.08418945 132.86645508 160.03637695 C148.3574759 159.5528549 148.3574759 159.5528549 153.64770508 164.17700195 C159.70042084 170.81761947 161.03225266 175.94892516 160.91333008 184.88793945 C160.36711117 191.65141472 157.67935613 195.45747416 152.77270508 199.98950195 C147.68024852 204.26113492 142.42126333 208.33586915 137.17114258 212.41137695 C132.9465052 215.7031218 128.84843961 219.1391034 124.75708008 222.5949707 C122.64770508 224.17700195 122.64770508 224.17700195 120.64770508 224.17700195 C120.33833008 225.90950195 120.33833008 225.90950195 120.02270508 227.67700195 C117.35113369 239.41737692 112.23250724 250.35376047 107.08520508 261.17700195 C106.62637939 262.14395996 106.16755371 263.11091797 105.69482422 264.10717773 C103.65529522 268.32500405 101.55045908 272.38276388 99.05506897 276.34985352 C98.60438081 277.06739807 98.15369265 277.78494263 97.68934727 278.52423096 C97.34560534 279.06964539 97.00186342 279.61505981 96.64770508 280.17700195 C97.72796967 280.16811951 98.80823425 280.15923706 99.92123413 280.15008545 C110.13106418 280.0687909 120.34082806 280.00893662 130.55090904 279.96975327 C135.79929532 279.94893105 141.04741907 279.92071178 146.2956543 279.87524414 C151.36610092 279.83159461 156.43629595 279.80782454 161.50691605 279.79749298 C163.43570538 279.79013581 165.36448187 279.77576932 167.2931633 279.75408173 C179.67606189 279.62045108 190.52995331 279.52044606 200.11645508 288.47387695 C207.20632887 296.35955291 208.95516369 304.24931235 208.84301758 314.60668945 C208.83877274 316.09218796 208.83877274 316.09218796 208.83444214 317.60769653 C208.82328978 320.75592372 208.79819415 323.90386144 208.77270508 327.05200195 C208.76266889 329.19262283 208.75354416 331.33324819 208.74536133 333.47387695 C208.72336666 338.70834992 208.6899384 343.94265525 208.64770508 349.17700195 C209.26417404 349.37860931 209.88064301 349.58021667 210.51579285 349.78793335 C211.32526871 350.05473907 212.13474457 350.3215448 212.96875 350.59643555 C213.77084396 350.85991791 214.57293793 351.12340027 215.39933777 351.39486694 C237.42919838 359.05835021 254.43987694 378.43388497 264.53686523 398.81054688 C276.53315172 426.0859075 272.64770508 448.88098448 272.64770508 480.17700195 C114.24770508 480.17700195 -44.15229492 480.17700195 -207.35229492 480.17700195 C-207.35229492 399.2238247 -207.35229492 399.2238247 -177.01635742 368.8371582 C-169.19804221 361.43632584 -154.75607822 349.17700195 -143.35229492 349.17700195 C-143.37324219 347.86618652 -143.39418945 346.55537109 -143.41577148 345.20483398 C-143.48862079 340.30341683 -143.53425721 335.40204675 -143.57202148 330.50024414 C-143.59203508 328.38590424 -143.61925464 326.27161896 -143.65405273 324.1574707 C-143.70302433 321.10394748 -143.72536675 318.05116117 -143.74291992 314.99731445 C-143.76356506 314.06460724 -143.78421021 313.13190002 -143.80548096 312.17092896 C-143.80848756 303.21276804 -141.24169884 295.33194453 -135.05541992 288.70825195 C-127.76525805 282.15379449 -120.23761351 279.86340363 -110.59301758 279.94995117 C-109.73382721 279.94965912 -108.87463684 279.94936707 -107.9894104 279.94906616 C-105.16495472 279.95045342 -102.34076671 279.96598611 -99.51635742 279.98168945 C-97.55195256 279.98542173 -95.58754582 279.98826769 -93.62313843 279.99026489 C-88.46432311 279.99788443 -83.30562123 280.0175185 -78.14685059 280.03967285 C-72.87810805 280.06016748 -67.60934711 280.06927434 -62.34057617 280.0793457 C-52.01109938 280.10076597 -41.6817066 280.13488163 -31.35229492 280.17700195 C-31.97433807 279.07511536 -32.59638123 277.97322876 -33.23727417 276.83795166 C-34.05934496 275.37970142 -34.88137445 273.9214279 -35.70336914 272.46313477 C-36.11266159 271.73836945 -36.52195404 271.01360413 -36.94364929 270.26687622 C-39.5993048 265.55305832 -42.19339113 260.83448736 -44.47729492 255.92700195 C-44.7944043 255.25008301 -45.11151367 254.57316406 -45.43823242 253.87573242 C-55.35229492 232.12479074 -55.35229492 232.12479074 -55.35229492 224.17700195 C-55.94220215 223.90170654 -56.53210938 223.62641113 -57.13989258 223.34277344 C-59.25410732 222.22873952 -60.91545834 221.04508012 -62.75073242 219.5246582 C-63.38841553 219.00081543 -64.02609863 218.47697266 -64.68310547 217.93725586 C-65.35768799 217.37699707 -66.03227051 216.81673828 -66.72729492 216.23950195 C-70.88838181 212.8067607 -75.04464739 209.38194041 -79.34057617 206.1184082 C-79.96464355 205.64201904 -80.58871094 205.16562988 -81.23168945 204.67480469 C-82.39714656 203.78993224 -83.56832608 202.91252213 -84.74633789 202.04443359 C-89.6379377 198.31113745 -93.39811318 194.03954718 -95.35229492 188.17700195 C-95.98335954 180.61457188 -96.37453251 173.29828876 -91.35229492 167.17700195 C-85.17558933 161.5098435 -80.51294809 160.01971943 -72.16479492 160.11450195 C-71.41520508 160.11901367 -70.66561523 160.12352539 -69.89331055 160.12817383 C-68.04627109 160.13993841 -66.19927279 160.1578733 -64.35229492 160.17700195 C-64.85302017 159.18887512 -64.85302017 159.18887512 -65.36386108 158.18078613 C-68.52060993 151.94770234 -71.66948677 145.71071888 -74.80975914 139.4693222 C-76.42416819 136.26130761 -78.04149552 133.05483825 -79.66577148 129.85180664 C-81.23551264 126.75604012 -82.79722165 123.65633992 -84.35362625 120.55384827 C-85.23334008 118.80532112 -86.12115414 117.06087685 -87.00912476 115.31652832 C-91.93787201 105.4617893 -95.20105768 97.01880321 -91.85229492 86.05200195 C-88.93620206 75.75410879 -89.45969972 67.51526848 -94.25854492 57.9309082 C-99.97930555 50.40640029 -107.58722138 47.62130596 -116.35229492 44.80200195 C-117.41319336 44.44750977 -118.4740918 44.09301758 -119.56713867 43.7277832 C-122.15809705 42.86413041 -124.75272937 42.01431281 -127.35229492 41.17700195 C-126.1381912 37.53469079 -125.35402053 37.32362515 -122.07495117 35.5402832 C-121.17824707 35.04939209 -120.28154297 34.55850098 -119.35766602 34.05273438 C-118.38651855 33.53686768 -117.41537109 33.02100098 -116.41479492 32.48950195 C-115.41786621 31.95494385 -114.4209375 31.42038574 -113.39379883 30.86962891 C-78.79464327 12.5324628 -39.40677778 0.11726443 0 0 Z " fill="#D4CDC1" transform="translate(223.352294921875,15.822998046875)"/>
<path d="M0 0 C0.98198364 -0.0065712 1.96396729 -0.0131424 2.97570801 -0.01991272 C6.19319765 -0.03946151 9.41064108 -0.05126593 12.62817383 -0.0612793 C13.73663477 -0.06535482 14.84509571 -0.06943035 15.98714638 -0.07362938 C21.85291985 -0.09441021 27.71867047 -0.10874708 33.58447266 -0.11816406 C39.60490172 -0.12922096 45.6249605 -0.16363622 51.6452589 -0.20333576 C56.30990737 -0.22961772 60.97446897 -0.23786607 65.63918495 -0.24144554 C67.85689105 -0.24628031 70.07459409 -0.25780405 72.29222679 -0.27648354 C97.5588642 -0.47611371 117.05298236 5.0811186 135.59692383 23.06762695 C148.92687088 37.32617706 155.17875371 55.61864115 155.96020508 74.92700195 C155.19086342 93.14045339 148.55383905 109.62277619 142.30163574 126.50500488 C140.99318693 130.048541 139.70244788 133.59851872 138.40942383 137.14770508 C136.52575908 142.30829478 134.63633304 147.46668903 132.7331543 152.62011719 C132.35359589 153.64805893 131.97403748 154.67600067 131.58297729 155.73509216 C130.64770508 158.17700195 130.64770508 158.17700195 129.64770508 160.17700195 C130.70989258 160.1305957 131.77208008 160.08418945 132.86645508 160.03637695 C148.3574759 159.5528549 148.3574759 159.5528549 153.64770508 164.17700195 C159.70042084 170.81761947 161.03225266 175.94892516 160.91333008 184.88793945 C160.36711117 191.65141472 157.67935613 195.45747416 152.77270508 199.98950195 C147.68024852 204.26113492 142.42126333 208.33586915 137.17114258 212.41137695 C132.9465052 215.7031218 128.84843961 219.1391034 124.75708008 222.5949707 C122.64770508 224.17700195 122.64770508 224.17700195 120.64770508 224.17700195 C120.44145508 225.33200195 120.23520508 226.48700195 120.02270508 227.67700195 C117.35113369 239.41737692 112.23250724 250.35376047 107.08520508 261.17700195 C106.62637939 262.14395996 106.16755371 263.11091797 105.69482422 264.10717773 C104.38140562 266.82337913 103.0730243 269.51747038 101.64770508 272.17700195 C101.3819058 272.83309196 101.11610653 273.48918198 100.84225273 274.1651535 C99.67523619 276.60618344 98.60539662 278.29600963 96.64770508 280.17700195 C92.5584942 281.36619129 88.5619634 281.18845089 84.33007812 281.08520508 C82.45629738 281.0869574 82.45629738 281.0869574 80.54466248 281.08874512 C77.12618908 281.08413073 73.71159769 281.04407335 70.29381156 280.98815346 C66.71982033 280.93808396 63.14577526 280.93343918 59.57148743 280.9239502 C52.8067067 280.89910168 46.04296238 280.83347742 39.27863771 280.75315428 C31.57627576 280.66368125 23.87386385 280.61973603 16.17111146 280.5795908 C0.32937612 280.49600794 -15.51132567 280.35532942 -31.35229492 280.17700195 C-32.80356489 277.60622383 -34.25377013 275.03485488 -35.70336914 272.46313477 C-36.11266159 271.73836945 -36.52195404 271.01360413 -36.94364929 270.26687622 C-39.5993048 265.55305832 -42.19339113 260.83448736 -44.47729492 255.92700195 C-44.7944043 255.25008301 -45.11151367 254.57316406 -45.43823242 253.87573242 C-55.35229492 232.12479074 -55.35229492 232.12479074 -55.35229492 224.17700195 C-55.94220215 223.90170654 -56.53210938 223.62641113 -57.13989258 223.34277344 C-59.25410732 222.22873952 -60.91545834 221.04508012 -62.75073242 219.5246582 C-63.38841553 219.00081543 -64.02609863 218.47697266 -64.68310547 217.93725586 C-65.35768799 217.37699707 -66.03227051 216.81673828 -66.72729492 216.23950195 C-70.88838181 212.8067607 -75.04464739 209.38194041 -79.34057617 206.1184082 C-79.96464355 205.64201904 -80.58871094 205.16562988 -81.23168945 204.67480469 C-82.39714656 203.78993224 -83.56832608 202.91252213 -84.74633789 202.04443359 C-89.6379377 198.31113745 -93.39811318 194.03954718 -95.35229492 188.17700195 C-95.98335954 180.61457188 -96.37453251 173.29828876 -91.35229492 167.17700195 C-85.17558933 161.5098435 -80.51294809 160.01971943 -72.16479492 160.11450195 C-71.41520508 160.11901367 -70.66561523 160.12352539 -69.89331055 160.12817383 C-68.04627109 160.13993841 -66.19927279 160.1578733 -64.35229492 160.17700195 C-64.68611176 159.51825073 -65.01992859 158.85949951 -65.36386108 158.18078613 C-68.52060993 151.94770234 -71.66948677 145.71071888 -74.80975914 139.4693222 C-76.42416819 136.26130761 -78.04149552 133.05483825 -79.66577148 129.85180664 C-81.23551264 126.75604012 -82.79722165 123.65633992 -84.35362625 120.55384827 C-85.23334008 118.80532112 -86.12115414 117.06087685 -87.00912476 115.31652832 C-91.93787201 105.4617893 -95.20105768 97.01880321 -91.85229492 86.05200195 C-88.93620206 75.75410879 -89.45969972 67.51526848 -94.25854492 57.9309082 C-99.97930555 50.40640029 -107.58722138 47.62130596 -116.35229492 44.80200195 C-117.41319336 44.44750977 -118.4740918 44.09301758 -119.56713867 43.7277832 C-122.15809705 42.86413041 -124.75272937 42.01431281 -127.35229492 41.17700195 C-126.1381912 37.53469079 -125.35402053 37.32362515 -122.07495117 35.5402832 C-120.72989502 34.80394653 -120.72989502 34.80394653 -119.35766602 34.05273438 C-118.38651855 33.53686768 -117.41537109 33.02100098 -116.41479492 32.48950195 C-115.41786621 31.95494385 -114.4209375 31.42038574 -113.39379883 30.86962891 C-78.79464327 12.5324628 -39.40677778 0.11726443 0 0 Z " fill="#FADFB2" transform="translate(223.352294921875,15.822998046875)"/>
<path d="M0 0 C0.98198364 -0.0065712 1.96396729 -0.0131424 2.97570801 -0.01991272 C6.19319765 -0.03946151 9.41064108 -0.05126593 12.62817383 -0.0612793 C13.73663477 -0.06535482 14.84509571 -0.06943035 15.98714638 -0.07362938 C21.85291985 -0.09441021 27.71867047 -0.10874708 33.58447266 -0.11816406 C39.60490172 -0.12922096 45.6249605 -0.16363622 51.6452589 -0.20333576 C56.30990737 -0.22961772 60.97446897 -0.23786607 65.63918495 -0.24144554 C67.85689105 -0.24628031 70.07459409 -0.25780405 72.29222679 -0.27648354 C97.5588642 -0.47611371 117.05298236 5.0811186 135.59692383 23.06762695 C148.92687088 37.32617706 155.17875371 55.61864115 155.96020508 74.92700195 C155.19351408 93.12262895 148.58306691 109.62816889 142.35992432 126.50500488 C141.31723057 129.34417461 140.28942378 132.18863424 139.26186275 135.03330898 C138.26892422 137.77932955 137.26988717 140.5230961 136.26864815 143.26609993 C135.79179928 144.57301993 135.31616459 145.88038361 134.84177971 147.1882 C134.18253974 149.00095641 133.51481575 150.81062075 132.84667969 152.62011719 C132.46934189 153.64805893 132.09200409 154.67600067 131.70323181 155.73509216 C130.64770508 158.17700195 130.64770508 158.17700195 128.64770508 160.17700195 C128.6258313 158.4772522 128.6258313 158.4772522 128.60351562 156.74316406 C128.54474375 152.46552798 128.46753026 148.18837591 128.38525391 143.91113281 C128.35237008 142.0736487 128.32422964 140.23607241 128.30126953 138.3984375 C127.88714654 106.10565541 115.46052711 84.4081096 97.64770508 58.17700195 C94.49015999 58.77038928 92.67534176 59.71433616 90.24926758 61.80200195 C89.61230957 62.33954102 88.97535156 62.87708008 88.3190918 63.4309082 C87.64378418 64.00711914 86.96847656 64.58333008 86.27270508 65.17700195 C74.85067645 74.64550211 64.0846143 81.93716616 49.64770508 86.17700195 C48.53588867 86.52698242 48.53588867 86.52698242 47.40161133 86.8840332 C43.10745929 88.04755588 38.91011901 88.28549257 34.47045898 88.45947266 C7.83611043 89.52047939 -10.7235568 100.9804032 -32.28979492 115.80200195 C-34.21169832 117.11281116 -36.13422133 118.42271239 -38.05737305 119.73168945 C-42.37742352 122.67338549 -46.69659668 125.6162008 -50.99278259 128.59268188 C-52.60740592 129.67683818 -54.25187144 130.71747839 -55.91896057 131.71908569 C-60.71284362 134.48545046 -60.71284362 134.48545046 -63.46582031 139.0612793 C-63.4605835 140.03532715 -63.45534668 141.009375 -63.44995117 142.01293945 C-63.46606445 143.07641602 -63.48217773 144.13989258 -63.4987793 145.2355957 C-63.47106445 146.33000977 -63.44334961 147.42442383 -63.41479492 148.55200195 C-63.42188477 149.66961914 -63.42897461 150.78723633 -63.4362793 151.9387207 C-63.44802582 154.68740743 -63.41880802 157.42927922 -63.35229492 160.17700195 C-65.59596415 157.33700246 -67.32703014 154.48927301 -68.95605469 151.26000977 C-69.44989151 150.28509583 -69.94372833 149.31018188 -70.45252991 148.3057251 C-70.97761642 147.25777771 -71.50270294 146.20983032 -72.04370117 145.13012695 C-72.58961411 144.04495789 -73.13552704 142.95978882 -73.69798279 141.84173584 C-74.85073594 139.54634818 -76.00132343 137.24987181 -77.14990234 134.95239258 C-78.90333236 131.44989854 -80.66944036 127.95399686 -82.4362793 124.45825195 C-83.55620497 122.22427034 -84.67537057 119.98990749 -85.79370117 117.75512695 C-86.32081192 116.71527649 -86.84792267 115.67542603 -87.39100647 114.60406494 C-92.15204688 105.02227997 -95.09519647 96.67212028 -91.85229492 86.05200195 C-88.93620206 75.75410879 -89.45969972 67.51526848 -94.25854492 57.9309082 C-99.97930555 50.40640029 -107.58722138 47.62130596 -116.35229492 44.80200195 C-117.41319336 44.44750977 -118.4740918 44.09301758 -119.56713867 43.7277832 C-122.15809705 42.86413041 -124.75272937 42.01431281 -127.35229492 41.17700195 C-126.1381912 37.53469079 -125.35402053 37.32362515 -122.07495117 35.5402832 C-120.72989502 34.80394653 -120.72989502 34.80394653 -119.35766602 34.05273438 C-118.38651855 33.53686768 -117.41537109 33.02100098 -116.41479492 32.48950195 C-115.41786621 31.95494385 -114.4209375 31.42038574 -113.39379883 30.86962891 C-78.79464327 12.5324628 -39.40677778 0.11726443 0 0 Z " fill="#976947" transform="translate(223.352294921875,15.822998046875)"/>
<path d="M0 0 C3.07286169 1.35595892 4.10659354 3.38012363 5.92114258 6.18139648 C6.6350415 7.27484375 7.34894043 8.36829102 8.08447266 9.49487305 C8.83835512 10.67878547 9.59118442 11.86336911 10.34301758 13.04858398 C11.11333411 14.24884984 11.88376076 15.44904503 12.65429688 16.64916992 C23.97518696 34.3742478 32.32335177 50.79409899 32.19067383 72.35717773 C32.18855141 73.67408348 32.18855141 73.67408348 32.18638611 75.01759338 C32.18082579 77.7987928 32.16828078 80.57990924 32.15551758 83.36108398 C32.15049745 85.25626511 32.14593544 87.1514475 32.1418457 89.04663086 C32.13086938 93.67231347 32.1136324 98.2979347 32.09301758 102.92358398 C33.85222534 102.89748047 33.85222534 102.89748047 35.64697266 102.87084961 C37.19799445 102.85677607 38.74902014 102.84312648 40.30004883 102.82983398 C41.45736511 102.81098145 41.45736511 102.81098145 42.63806152 102.79174805 C48.22244468 102.75584524 52.76139992 103.05300484 57.09301758 106.92358398 C63.14041392 113.57304412 64.47765615 118.68866771 64.35864258 127.63452148 C63.81242367 134.39799675 61.12466863 138.2040562 56.21801758 142.73608398 C51.12556102 147.00771695 45.86657583 151.08245118 40.61645508 155.15795898 C36.3918177 158.44970383 32.29375211 161.88568543 28.20239258 165.34155273 C26.09301758 166.92358398 26.09301758 166.92358398 24.09301758 166.92358398 C24.6293433 162.03030296 25.3957398 157.32243634 26.50219727 152.52832031 C29.07659936 141.35869867 30.17288907 130.34851296 31.09301758 118.92358398 C20.86301758 118.92358398 10.63301758 118.92358398 0.09301758 118.92358398 C0.09301758 113.64358398 0.09301758 108.36358398 0.09301758 102.92358398 C-15.74698242 102.92358398 -31.58698242 102.92358398 -47.90698242 102.92358398 C-47.90698242 110.84358398 -47.90698242 118.76358398 -47.90698242 126.92358398 C-58.46698242 126.92358398 -69.02698242 126.92358398 -79.90698242 126.92358398 C-79.90698242 119.00358398 -79.90698242 111.08358398 -79.90698242 102.92358398 C-95.74698242 102.92358398 -111.58698242 102.92358398 -127.90698242 102.92358398 C-127.90698242 108.20358398 -127.90698242 113.48358398 -127.90698242 118.92358398 C-138.13698242 118.92358398 -148.36698242 118.92358398 -158.90698242 118.92358398 C-157.95892026 131.42076705 -156.45046111 143.25620742 -153.58398438 155.45703125 C-153.36830811 156.37540771 -153.15263184 157.29378418 -152.93041992 158.23999023 C-152.73367676 159.04895752 -152.53693359 159.8579248 -152.33422852 160.69140625 C-151.90698242 162.92358398 -151.90698242 162.92358398 -151.90698242 166.92358398 C-154.6735366 165.63250018 -156.9566031 164.21710358 -159.30541992 162.27124023 C-159.94310303 161.74739746 -160.58078613 161.22355469 -161.23779297 160.68383789 C-161.91237549 160.1235791 -162.58695801 159.56332031 -163.28198242 158.98608398 C-167.44306931 155.55334273 -171.59933489 152.12852245 -175.89526367 148.86499023 C-176.51933105 148.38860107 -177.14339844 147.91221191 -177.78637695 147.42138672 C-178.95183406 146.53651427 -180.12301358 145.65910416 -181.30102539 144.79101562 C-186.1926252 141.05771948 -189.95280068 136.78612921 -191.90698242 130.92358398 C-192.53804704 123.36115391 -192.92922001 116.0448708 -187.90698242 109.92358398 C-183.34588206 105.73875146 -179.25077667 102.77814192 -172.89526367 102.82592773 C-171.75927734 102.83076172 -171.75927734 102.83076172 -170.6003418 102.83569336 C-169.42181641 102.84826172 -169.42181641 102.84826172 -168.21948242 102.86108398 C-167.42219727 102.8655957 -166.62491211 102.87010742 -165.8034668 102.87475586 C-163.83793985 102.88652548 -161.87245157 102.9044605 -159.90698242 102.92358398 C-159.99338989 101.89587891 -159.99338989 101.89587891 -160.08154297 100.84741211 C-160.31185738 97.70729112 -160.45367295 94.56893845 -160.59448242 91.42358398 C-160.68665039 90.34592773 -160.77881836 89.26827148 -160.8737793 88.15795898 C-161.02157307 83.7510175 -161.10298555 80.34329993 -158.17626953 76.86914062 C-155.83267435 75.13066074 -153.42904549 73.60591545 -150.91110229 72.13360596 C-147.67837705 70.18179228 -144.58198792 68.03175246 -141.45826721 65.91134644 C-137.67363828 63.35012855 -133.8603946 60.83311489 -130.04736328 58.31445312 C-127.10690703 56.36930302 -124.17395366 54.41317552 -121.2409668 52.45678711 C-103.18701041 40.48003517 -86.94555745 31.2122294 -64.84448242 30.42358398 C-42.97387394 29.64181805 -26.10566351 20.30415513 -9.78979492 6.24780273 C-8.8178418 5.41893555 -7.84588867 4.59006836 -6.84448242 3.73608398 C-5.98725586 2.9794043 -5.1300293 2.22272461 -4.24682617 1.44311523 C-1.90698242 -0.07641602 -1.90698242 -0.07641602 0 0 Z " fill="#F9DEB1" transform="translate(319.906982421875,73.076416015625)"/>
<path d="M0 0 C24.36226555 8.12075518 43.47580699 25.05917842 55.0390625 47.91796875 C64.22843443 66.46297639 64.5273246 84.7717883 64.25 105.0625 C64.1675 113.621875 64.085 122.18125 64 131 C42.88 131 21.76 131 0 131 C0 87.77 0 44.54 0 0 Z " fill="#2C4C83" transform="translate(432,365)"/>
<path d="M0 0 C0 43.23 0 86.46 0 131 C-21.12 131 -42.24 131 -64 131 C-64.0825 122.440625 -64.165 113.88125 -64.25 105.0625 C-64.28641602 102.39808838 -64.32283203 99.73367676 -64.36035156 96.98852539 C-64.58491873 68.95007849 -57.94103685 45.28096934 -38.3359375 24.37109375 C-29.40638797 15.30715301 -13.68336154 0 0 0 Z " fill="#2D4C83" transform="translate(80,365)"/>
<path d="M0 0 C15.84 0 31.68 0 48 0 C48.061875 5.81625 48.12375 11.6325 48.1875 17.625 C48.22846802 20.36224365 48.22846802 20.36224365 48.27026367 23.15478516 C48.27903313 24.61620422 48.28667598 26.07763067 48.29296875 27.5390625 C48.30831665 28.28567139 48.32366455 29.03228027 48.33947754 29.80151367 C48.34219396 35.2723826 47.31676875 39.46000093 43.5 43.64453125 C37.26539223 48.49908261 32.36400581 48.21226019 24.75 48.25 C23.72519531 48.270625 22.70039063 48.29125 21.64453125 48.3125 C14.93938182 48.34701814 9.50369444 48.08733613 4.2578125 43.46484375 C0.33844088 38.1804496 -0.13965686 35.18564539 -0.09765625 28.7109375 C-0.09664917 27.98559814 -0.09564209 27.26025879 -0.09460449 26.51293945 C-0.08936769 23.80027691 -0.07540644 21.08763689 -0.0625 18.375 C-0.041875 12.31125 -0.02125 6.2475 0 0 Z " fill="#F2EFEA" transform="translate(192,176)"/>
<path d="M0 0 C15.84 0 31.68 0 48 0 C48.061875 5.81625 48.12375 11.6325 48.1875 17.625 C48.22846802 20.36224365 48.22846802 20.36224365 48.27026367 23.15478516 C48.27903313 24.61620422 48.28667598 26.07763067 48.29296875 27.5390625 C48.30831665 28.28567139 48.32366455 29.03228027 48.33947754 29.80151367 C48.34219396 35.2723826 47.31676875 39.46000093 43.5 43.64453125 C37.26539223 48.49908261 32.36400581 48.21226019 24.75 48.25 C23.72519531 48.270625 22.70039063 48.29125 21.64453125 48.3125 C14.92818032 48.34707581 9.55286047 48.05896506 4.2578125 43.5 C0.23092033 38.16783934 -0.1412811 34.32938521 -0.09765625 27.83203125 C-0.09664917 27.12735718 -0.09564209 26.42268311 -0.09460449 25.69665527 C-0.08937914 23.06858692 -0.07541786 20.4405418 -0.0625 17.8125 C-0.041875 11.934375 -0.02125 6.05625 0 0 Z " fill="#F2EFEA" transform="translate(272,176)"/>
<path d="M0 0 C6.52135785 3.88564238 11.22861876 8.61829894 13.25 16.046875 C14.47813671 22.75776487 14.47651146 28.53469486 11.015625 34.5546875 C6.97092183 40.28864905 2.55161311 44.4597047 -4.3125 46.4375 C-11.3704524 47.14443546 -18.00009299 46.89640337 -23.859375 42.546875 C-29.73081734 37.55784596 -33.76668882 33.55536589 -34.61328125 25.6171875 C-34.9020323 19.0336635 -34.43730289 13.72514625 -30.3125 8.4375 C-22.05497229 -0.22057943 -11.90343193 -5.41699148 0 0 Z " fill="#E6E3DC" transform="translate(266.3125,409.5625)"/>
<path d="M0 0 C2.73582748 -0.04059482 5.47104776 -0.0703023 8.20703125 -0.09375 C8.97857544 -0.10631836 9.75011963 -0.11888672 10.54504395 -0.13183594 C16.1294271 -0.16773875 20.66838234 0.12942085 25 4 C31.04739634 10.64946014 32.38463858 15.76508372 32.265625 24.7109375 C31.71940609 31.47441277 29.03165105 35.28047221 24.125 39.8125 C19.03254344 44.08413297 13.77355825 48.1588672 8.5234375 52.234375 C4.29880012 55.52611985 0.20073453 58.96210145 -3.890625 62.41796875 C-6 64 -6 64 -8 64 C-7.49404085 59.3482735 -6.7886836 54.9616652 -5.64160156 50.41723633 C-1.60983859 33.99104134 -1.15161062 16.81908732 0 0 Z " fill="#F5CF88" transform="translate(352,176)"/>
<path d="M0 0 C1.13598633 0.00483398 1.13598633 0.00483398 2.29492188 0.00976562 C3.47344727 0.02233398 3.47344727 0.02233398 4.67578125 0.03515625 C5.47306641 0.03966797 6.27035156 0.04417969 7.09179688 0.04882812 C9.05732382 0.06059775 11.0228121 0.07853277 12.98828125 0.09765625 C13.02268311 0.87028809 13.05708496 1.64291992 13.0925293 2.43896484 C13.92087836 19.83557936 15.79891849 36.4147742 19.46923828 53.48339844 C20.16952884 57.01054393 20.60861686 60.5228387 20.98828125 64.09765625 C18.22172707 62.80657244 15.93866058 61.39117585 13.58984375 59.4453125 C12.63331909 58.65954834 12.63331909 58.65954834 11.6574707 57.85791016 C10.64559692 57.01752197 10.64559692 57.01752197 9.61328125 56.16015625 C5.45219436 52.72741499 1.29592879 49.30259471 -3 46.0390625 C-3.62406738 45.56267334 -4.24813477 45.08628418 -4.89111328 44.59545898 C-6.05657039 43.71058654 -7.22774991 42.83317642 -8.40576172 41.96508789 C-13.29736153 38.23179175 -17.05753701 33.96020147 -19.01171875 28.09765625 C-19.64278337 20.53522617 -20.03395634 13.21894306 -15.01171875 7.09765625 C-10.45061839 2.91282372 -6.355513 -0.04778581 0 0 Z " fill="#F5CF88" transform="translate(147.01171875,175.90234375)"/>
<path d="M0 0 C2.9519746 1.1546923 4.97042244 2.72142633 7.19213867 4.94921875 C7.78923141 5.54323486 8.38632416 6.13725098 9.00151062 6.74926758 C9.6339418 7.38888428 10.26637299 8.02850098 10.91796875 8.6875 C11.57581863 9.34580811 12.23366852 10.00411621 12.91145325 10.68237305 C14.29807992 12.07201594 15.68228022 13.46408362 17.06420898 14.85839844 C19.18485617 16.99733337 21.31342786 19.12812668 23.44335938 21.2578125 C24.789536 22.60890339 26.13525506 23.96045036 27.48046875 25.3125 C28.11897263 25.9521167 28.7574765 26.5917334 29.41532898 27.25073242 C30.00296524 27.84474854 30.5906015 28.43876465 31.19604492 29.05078125 C31.71470627 29.57325439 32.23336761 30.09572754 32.76774597 30.6340332 C34.53850522 32.59693881 35.00251778 34.01321834 35.5 36.625 C34.11712605 45.95939913 21.12224107 54.98738734 14.5625 61.5 C13.3415631 62.71591114 12.12085808 63.93205516 10.90039062 65.1484375 C7.93625987 68.10164966 4.96901042 71.05169398 2 74 C-1.41059403 72.39464713 -3.61792484 70.59481099 -6.25 67.875 C-6.95640625 67.15054688 -7.6628125 66.42609375 -8.390625 65.6796875 C-8.92171875 65.12539063 -9.4528125 64.57109375 -10 64 C-8.4152642 60.13671373 -5.94043113 57.71123077 -2.9921875 54.796875 C-2.50670441 54.3142218 -2.02122131 53.8315686 -1.52102661 53.33428955 C0.02299866 51.80141438 1.57384824 50.27565996 3.125 48.75 C4.17624009 47.70879639 5.22702657 46.66713459 6.27734375 45.625 C8.84633004 43.07800536 11.42148161 40.53734823 14 38 C12.42563091 34.12946551 9.95657765 31.79877598 6.95703125 28.9375 C5.95596502 27.96657373 4.95532646 26.99520634 3.95507812 26.0234375 C2.37974509 24.50405824 0.80084107 22.98892339 -0.78588867 21.48144531 C-2.32018204 20.01949071 -3.83855478 18.54244987 -5.35546875 17.0625 C-6.26965576 16.18722656 -7.18384277 15.31195313 -8.12573242 14.41015625 C-10 12 -10 12 -9.88769531 9.80151367 C-8.76606792 7.5252517 -7.39298776 6.066876 -5.5625 4.3125 C-4.94503906 3.71050781 -4.32757813 3.10851562 -3.69140625 2.48828125 C-2 1 -2 1 0 0 Z " fill="#C66D62" transform="translate(309,315)"/>
<path d="M0 0 C2.40783878 1.27559706 4.14371836 2.83908738 6.08398438 4.75097656 C6.80199219 5.43804687 7.52 6.12511719 8.25976562 6.83300781 C9.77148438 8.93847656 9.77148438 8.93847656 9.68652344 10.73120117 C8.36496228 13.91909723 6.07905363 15.99964094 3.64257812 18.36035156 C3.13348404 18.86520081 2.62438995 19.37005005 2.09986877 19.89019775 C0.47649317 21.49681635 -1.15701262 23.09267478 -2.79101562 24.68847656 C-3.89521613 25.77762641 -4.99874007 26.86746261 -6.1015625 27.95800781 C-8.80276853 30.62618416 -11.51310625 33.28475947 -14.22851562 35.93847656 C-12.64377983 39.80176283 -10.16894676 42.22724579 -7.22070312 45.14160156 C-6.73522003 45.62425476 -6.24973694 46.10690796 -5.74954224 46.60418701 C-4.20551696 48.13706218 -2.65466738 49.6628166 -1.10351562 51.18847656 C-0.05227554 52.22968017 0.99851095 53.27134197 2.04882812 54.31347656 C4.61781441 56.8604712 7.19296599 59.40112833 9.77148438 61.93847656 C8.16613151 65.34907059 6.36629537 67.55640141 3.64648438 70.18847656 C2.92203125 70.89488281 2.19757813 71.60128906 1.45117188 72.32910156 C0.61972656 73.12574219 0.61972656 73.12574219 -0.22851562 73.93847656 C-3.07252849 72.64065783 -5.17760715 71.25574802 -7.4206543 69.08447266 C-8.01774704 68.50982269 -8.61483978 67.93517273 -9.23002625 67.34310913 C-9.86245743 66.72231476 -10.49488861 66.10152039 -11.14648438 65.46191406 C-11.80433426 64.817836 -12.46218414 64.17375793 -13.13996887 63.51016235 C-14.52711043 62.14626357 -15.9112987 60.77935554 -17.29272461 59.40966797 C-19.40352119 57.32581153 -21.53706476 55.26721686 -23.671875 53.20800781 C-25.01906219 51.87747754 -26.36481413 50.54549215 -27.70898438 49.21191406 C-28.34748825 48.60326508 -28.98599213 47.99461609 -29.6438446 47.36752319 C-32.65404457 44.32696355 -34.57993833 42.0036482 -35.29931641 37.7121582 C-35.20727874 32.80655033 -35.20727874 32.80655033 -32.61523438 30.28613281 C-31.96603027 29.62758301 -31.31682617 28.9690332 -30.64794922 28.29052734 C-29.84953613 27.51435059 -29.05112305 26.73817383 -28.22851562 25.93847656 C-27.2398475 24.91463055 -26.25526451 23.88683026 -25.27392578 22.85595703 C-22.48291996 19.93116089 -19.65573864 17.0448845 -16.81176758 14.17163086 C-15.62055077 12.96366179 -14.43475127 11.75032898 -13.25415039 10.53198242 C-11.53481816 8.75821847 -9.79990569 7.0011728 -8.06054688 5.24707031 C-7.53443314 4.6982872 -7.0083194 4.14950409 -6.46626282 3.58409119 C-2.78421938 -0.07686495 -2.78421938 -0.07686495 0 0 Z " fill="#C66D62" transform="translate(203.228515625,315.0615234375)"/>
<path d="M0 0 C5.08938811 1.59043379 8.87456643 4.7446951 13 8 C11.40509259 13.21412039 8.10725759 16.94451204 4.75 21.125 C-0.24338772 27.43925674 -5.12780614 33.81105686 -9.875 40.3125 C-15.0971147 47.44953964 -20.39379012 54.52547364 -25.75 61.5625 C-26.44206543 62.47362549 -27.13413086 63.38475098 -27.84716797 64.32348633 C-28.49057129 65.1667749 -29.13397461 66.01006348 -29.796875 66.87890625 C-30.65297363 68.00147827 -30.65297363 68.00147827 -31.52636719 69.14672852 C-33 71 -33 71 -35 73 C-38.96 70.03 -42.92 67.06 -47 64 C-45.47694125 60.19235313 -44.64045963 58.2414333 -42.234375 55.2421875 C-41.68152832 54.54440186 -41.12868164 53.84661621 -40.55908203 53.12768555 C-39.96208496 52.38429932 -39.36508789 51.64091309 -38.75 50.875 C-33.75661617 44.56074817 -28.87207207 38.18902872 -24.125 31.6875 C-18.8867067 24.52587063 -13.56659879 17.43153619 -8.1875 10.375 C-7.48705566 9.45549561 -6.78661133 8.53599121 -6.06494141 7.58862305 C-1.13585279 1.13585279 -1.13585279 1.13585279 0 0 Z " fill="#C66C61" transform="translate(273,316)"/>
<path d="M0 0 C10.56 0 21.12 0 32 0 C32 5.28 32 10.56 32 16 C21.44 16 10.88 16 0 16 C0 10.72 0 5.44 0 0 Z " fill="#A8B0BC" transform="translate(240,184)"/>
<path d="M0 0 C10.56 0 21.12 0 32 0 C32 5.28 32 10.56 32 16 C21.44 16 10.88 16 0 16 C0 10.72 0 5.44 0 0 Z " fill="#C1C8D0" transform="translate(320,176)"/>
<path d="M0 0 C10.56 0 21.12 0 32 0 C32 5.28 32 10.56 32 16 C21.44 16 10.88 16 0 16 C0 10.72 0 5.44 0 0 Z " fill="#C1C8D0" transform="translate(160,176)"/>
</svg>
